<?xml version="1.0" encoding="UTF-8" standalone="no"?>
<svg
   xmlns:dc="http://purl.org/dc/elements/1.1/"
   xmlns:cc="http://creativecommons.org/ns#"
   xmlns:rdf="http://www.w3.org/1999/02/22-rdf-syntax-ns#"
   xmlns:svg="http://www.w3.org/2000/svg"
   xmlns="http://www.w3.org/2000/svg"
   xmlns:sodipodi="http://sodipodi.sourceforge.net/DTD/sodipodi-0.dtd"
   xmlns:inkscape="http://www.inkscape.org/namespaces/inkscape"
   height="1024"
   width="768"
   version="1.1"
   id="svg4"
   sodipodi:docname="save_results_active.svg"
   inkscape:version="0.92.3 (2405546, 2018-03-11)">
  <metadata
     id="metadata10">
    <rdf:RDF>
      <cc:Work
         rdf:about="">
        <dc:format>image/svg+xml</dc:format>
        <dc:type
           rdf:resource="http://purl.org/dc/dcmitype/StillImage" />
        <dc:title />
      </cc:Work>
    </rdf:RDF>
  </metadata>
  <defs
     id="defs8" />
  <sodipodi:namedview
     pagecolor="#ffffff"
     bordercolor="#666666"
     borderopacity="1"
     objecttolerance="10"
     gridtolerance="10"
     guidetolerance="10"
     inkscape:pageopacity="0"
     inkscape:pageshadow="2"
     inkscape:window-width="2511"
     inkscape:window-height="1385"
     id="namedview6"
     showgrid="false"
     inkscape:zoom="0.23046875"
     inkscape:cx="-1173.6949"
     inkscape:cy="512"
     inkscape:window-x="49"
     inkscape:window-y="27"
     inkscape:window-maximized="1"
     inkscape:current-layer="svg4" />
  <path
     d="M 384,960 C 171.969,960 0,902.625 0,832 V 704 c 0,-11.125 5.562,-21.688 13.562,-32 42.813,55.125 191.688,96 370.438,96 178.75,0 327.625,-40.875 370.438,-96 8,10.312 13.562,20.875 13.562,32 v 128 c 0,70.625 -172,128 -384,128 z m 0,-256 C 171.969,704 0,646.625 0,576 V 448 c 0,-6.781 2.562,-13.375 6,-19.906 v 0 C 7.938,424 10.5,419.969 13.562,416 56.375,471.094 205.25,512 384,512 c 178.75,0 327.625,-40.906 370.438,-96 3.062,3.969 5.625,8 7.562,12.094 v 0 c 3.438,6.531 6,13.125 6,19.906 v 128 c 0,70.625 -172,128 -384,128 z m 0,-256 C 171.969,448 0,390.656 0,320 V 256 192 C 0,121.344 171.969,64 384,64 c 212,0 384,57.344 384,128 v 64 64 c 0,47.50237 -77.74294,88.9878 -193.11697,111.07595 C 518.64737,441.84217 453.47137,448 384,448 Z m 0,-320 c -141.375,0 -256,28.594 -256,64 0,35.406 114.625,64 256,64 141.375,0 256,-28.594 256,-64 0,-35.406 -114.625,-64 -256,-64 z"
     id="path2"
     style="fill:#ffe824;fill-opacity:1;stroke:#000000;stroke-width:20.49999924;stroke-miterlimit:4;stroke-dasharray:none"
     inkscape:connector-curvature="0"
     sodipodi:nodetypes="ssscscsssssscccscccssssscssscssssssss" />
</svg>
