<?xml version="1.0" encoding="utf-8"?>
<!-- Generator: Adobe Illustrator 16.0.0, SVG Export Plug-In . SVG Version: 6.00 Build 0)  -->
<!DOCTYPE svg PUBLIC "-//W3C//DTD SVG 1.1//EN" "http://www.w3.org/Graphics/SVG/1.1/DTD/svg11.dtd">
<svg version="1.1" id="Layer_1" xmlns="http://www.w3.org/2000/svg" xmlns:xlink="http://www.w3.org/1999/xlink" x="0px" y="0px"
	 width="20px" height="20px" viewBox="0 0 20 20" style="enable-background:new 0 0 20 20;" xml:space="preserve">
<g>
	<g>
		<path style="fill-rule:evenodd;clip-rule:evenodd;fill:none;" d="M19.822,10.129c0,3.215-0.004,6.429,0.007,9.644
			c0,0.255-0.038,0.324-0.314,0.323c-6.281-0.01-12.563-0.01-18.844-0.001c-0.254,0-0.324-0.038-0.323-0.314
			c0.011-6.459,0.01-12.918,0.002-19.377c0-0.254,0.038-0.324,0.313-0.323c6.282,0.011,12.563,0.01,18.844,0.002
			c0.255,0,0.325,0.037,0.323,0.313C19.817,3.641,19.822,6.885,19.822,10.129z M4.473,16.637c0.101,0.01,0.164-0.058,0.226-0.119
			c0.159-0.156,0.332-0.3,0.469-0.473c0.223-0.282,0.422-0.271,0.706-0.065c0.616,0.448,1.308,0.751,2.045,0.942
			c0.342,0.089,0.768,0.067,1.009,0.27c0.285,0.24,0.085,0.698,0.117,1.06c0.021,0.233,0.107,0.335,0.35,0.356
			c1.127,0.099,1.138,0.101,1.173-1.044c0.009-0.302,0.103-0.442,0.424-0.493c0.855-0.135,1.658-0.433,2.401-0.886
			c0.707-0.432,0.721-0.438,1.309,0.167c0.271,0.279,0.46,0.323,0.755,0.017c0.678-0.702,0.701-0.696,0.005-1.393
			c-0.223-0.223-0.241-0.387-0.051-0.641c0.55-0.731,0.912-1.554,1.118-2.446c0.173-0.749,0.177-0.773,0.959-0.746
			c0.458,0.016,0.591-0.151,0.578-0.59c-0.031-1.033,0.089-0.968-0.919-0.946c-0.381,0.008-0.522-0.14-0.575-0.495
			c-0.128-0.846-0.452-1.623-0.91-2.343c-0.464-0.729-0.478-0.739,0.141-1.34c0.269-0.261,0.311-0.432,0.018-0.715
			c-0.729-0.706-0.724-0.728-1.438-0.015c-0.229,0.23-0.405,0.267-0.682,0.073c-0.671-0.473-1.414-0.799-2.218-0.986
			c-0.89-0.208-0.901-0.211-0.906-1.119c-0.002-0.386-0.118-0.563-0.537-0.554C8.905,2.137,9.037,2.042,9.057,3.079
			C9.065,3.498,8.912,3.65,8.519,3.704C7.703,3.815,6.948,4.118,6.235,4.526c-0.752,0.431-0.76,0.442-1.387-0.188
			C4.603,4.091,4.431,4.045,4.16,4.316C3.428,5.045,3.408,5.044,4.138,5.773c0.228,0.228,0.227,0.376,0.04,0.631
			c-0.594,0.809-1.02,1.704-1.175,2.703C2.943,9.499,2.759,9.646,2.38,9.601C2.264,9.586,2.143,9.608,2.025,9.598
			c-0.393-0.036-0.515,0.156-0.513,0.527c0.005,1.228-0.017,0.998,0.948,1.003c0.294,0.002,0.472,0.067,0.523,0.391
			c0.169,1.073,0.595,2.043,1.252,2.906c0.145,0.19,0.149,0.331-0.034,0.493c-0.188,0.167-0.359,0.353-0.534,0.533
			c-0.07,0.072-0.159,0.139-0.135,0.262C3.553,15.816,4.377,16.629,4.473,16.637z"/>
		<path style="fill-rule:evenodd;clip-rule:evenodd;" d="M4.473,16.637c-0.096-0.008-0.92-0.82-0.94-0.924
			c-0.023-0.123,0.065-0.189,0.135-0.262c0.175-0.181,0.347-0.366,0.534-0.533c0.183-0.162,0.178-0.303,0.034-0.493
			c-0.658-0.863-1.083-1.833-1.252-2.906c-0.051-0.323-0.229-0.389-0.523-0.391c-0.965-0.006-0.943,0.225-0.948-1.003
			C1.511,9.753,1.633,9.562,2.025,9.598C2.143,9.608,2.264,9.586,2.38,9.601c0.378,0.046,0.563-0.102,0.623-0.493
			c0.155-1,0.581-1.894,1.175-2.703c0.187-0.254,0.188-0.403-0.04-0.631c-0.73-0.729-0.71-0.728,0.021-1.458
			c0.271-0.271,0.443-0.225,0.689,0.022c0.627,0.63,0.635,0.619,1.387,0.188c0.712-0.409,1.468-0.711,2.284-0.823
			C8.912,3.65,9.065,3.498,9.057,3.079c-0.02-1.037-0.152-0.942,0.984-0.965c0.419-0.009,0.535,0.168,0.537,0.554
			c0.005,0.907,0.016,0.911,0.906,1.119c0.804,0.187,1.547,0.513,2.218,0.986c0.276,0.194,0.452,0.158,0.682-0.073
			c0.714-0.713,0.709-0.691,1.438,0.015c0.293,0.284,0.251,0.455-0.018,0.715c-0.618,0.601-0.604,0.611-0.141,1.34
			c0.458,0.72,0.782,1.497,0.91,2.343c0.053,0.354,0.194,0.503,0.575,0.495c1.008-0.022,0.888-0.087,0.919,0.946
			c0.013,0.439-0.12,0.605-0.578,0.59c-0.782-0.027-0.786-0.003-0.959,0.746c-0.206,0.893-0.568,1.715-1.118,2.446
			c-0.19,0.254-0.172,0.418,0.051,0.641c0.696,0.696,0.673,0.69-0.005,1.393c-0.295,0.307-0.483,0.263-0.755-0.017
			c-0.588-0.605-0.602-0.599-1.309-0.167c-0.743,0.453-1.546,0.751-2.401,0.886c-0.321,0.051-0.415,0.191-0.424,0.493
			c-0.035,1.145-0.046,1.143-1.173,1.044c-0.243-0.021-0.33-0.123-0.35-0.356c-0.032-0.361,0.168-0.819-0.117-1.06
			c-0.241-0.202-0.667-0.181-1.009-0.27c-0.737-0.191-1.429-0.494-2.045-0.942c-0.283-0.206-0.483-0.217-0.706,0.065
			c-0.137,0.173-0.31,0.316-0.469,0.473C4.637,16.579,4.574,16.646,4.473,16.637z M9.79,15.643c2.949,0.004,5.197-2.264,5.211-5.254
			c0.014-2.97-2.258-5.295-5.179-5.299c-2.991-0.005-5.205,2.245-5.204,5.289C4.619,13.4,6.817,15.639,9.79,15.643z"/>
		<path style="fill-rule:evenodd;clip-rule:evenodd;fill:none;" d="M9.79,15.643c-2.973-0.004-5.171-2.242-5.172-5.265
			c0-3.043,2.213-5.293,5.204-5.289c2.921,0.004,5.192,2.329,5.179,5.299C14.987,13.379,12.739,15.646,9.79,15.643z M11.045,10.371
			c0.005-0.693-0.535-1.237-1.236-1.245C9.14,9.119,8.547,9.696,8.544,10.356c-0.003,0.668,0.58,1.25,1.251,1.25
			C10.49,11.604,11.041,11.061,11.045,10.371z"/>
		<path style="fill-rule:evenodd;clip-rule:evenodd;" d="M11.045,10.371c-0.004,0.689-0.555,1.233-1.25,1.234
			c-0.671,0.001-1.254-0.581-1.251-1.25c0.003-0.66,0.596-1.237,1.264-1.229C10.51,9.134,11.05,9.678,11.045,10.371z"/>
	</g>
</g>
</svg>
